<?xml version="1.0" encoding="UTF-8"?><svg id="Layer_2" xmlns="http://www.w3.org/2000/svg" viewBox="0 0 134 77"><defs><style>.cls-1{fill:#fff;}</style></defs><g id="Layer_1-2"><g id="_1lHH0T.tif"><path class="cls-1" d="M134,0v77H0V0h134ZM14.45,14.41h-7.72c-.47,0-3.13,1.83-3.27,2.71l.29,52.91c.91,1.1,1.48,1.83,2.95,2.02,9.47,1.26,21.69-1.02,31.46,0,1.5-.06,3.02-2.24,3.2-3.74-1.24-15.73,1.57-33.79.01-49.23-.07-.7-.8-3.3-1.15-3.58-.26-.21-1.25-.2-1.83-.39-.39-.13-.72-.72-.8-.72h-8.22c.76-3.02,1.27-7.48-2.72-7.97-1.39-.17-9.2-.18-10.11.17-.14.05-1.49,1.99-2.1,2.2l-.02,5.6ZM59.78,14.41h-7.72c-.15,0-2.03,1.39-2.79,1.31l-.98,3.38v50.22c.76,1.1,1.94,2.63,3.21,2.75,10.13.92,21.66-.78,31.95,0l2.7-2.38V16.76c-2.79-3.34-7.01-2.2-10.94-2.35.16-3.07.31-6.38-2.72-7.98l-11.1.19c-2.14,2.26-2.7,4.79-1.63,7.79ZM105.11,14.41h-7.72c-.17,0-2.83,1.34-2.97,1.51-.59.68-1.19,3.17-1.29,4.18-1.47,14.87,1.16,32.11.01,47.23.42,1.82,1.1,4.61,3.2,4.74,9.94-.92,21.74,1.11,31.45-.02,1.22-.14,2.22-.48,2.98-1.5l.27-52.93c.53-1.19-2.73-3.2-3.26-3.2h-7.72c.05-3.55.7-5.46-2.12-7.8-7.54.18-14.66-3.13-12.83,7.8Z"/><path d="M59.78,14.41c-1.07-3-.51-5.53,1.63-7.79l11.1-.19c3.02,1.6,2.88,4.92,2.72,7.98,3.93.15,8.15-.99,10.94,2.35v52.93s-2.7,2.38-2.7,2.38c-10.29-.78-21.82.93-31.95,0-1.27-.12-2.45-1.65-3.22-2.75V19.1s.98-3.38.98-3.38c.76.08,2.63-1.31,2.79-1.31h7.72ZM72.23,11.43c.81-3.89-5.08-3.25-7.78-3.02-1.51.13-2.53,1.43-2.19,3.02h9.96ZM83.19,17.39h-31.88v51.66c.91.23,1.76.45,2.72.52,6.39.5,21.35.78,27.44,0,.85-.11,1.51-.19,1.97-1.01l-.25-51.17Z"/><path d="M14.45,14.41l.02-5.6c.61-.21,1.96-2.14,2.1-2.2.91-.35,8.72-.34,10.11-.17,3.99.49,3.47,4.95,2.72,7.97h8.22c.08,0,.41.59.8.72.58.19,1.57.19,1.83.39.34.27,1.08,2.88,1.15,3.58,1.56,15.45-1.25,33.51-.01,49.23-.19,1.5-1.7,3.68-3.2,3.74-9.77-1.03-22,1.25-31.46,0-1.47-.2-2.04-.93-2.95-2.02l-.29-52.91c.14-.88,2.8-2.71,3.27-2.71h7.72ZM17.68,11.43h9.71c1.33-4.01-7.56-3.46-9.36-2.65-.88.4-1.34,2.41-.35,2.65ZM38.36,17.39H6.72c-.09,0-.88.77-.99,1v50.17c.79.89,1.85.91,2.96,1.01,6.97.62,19.92.55,26.95,0,.96-.08,1.8-.29,2.72-.52V17.39Z"/><path d="M105.11,14.41c-1.83-10.93,5.28-7.62,12.83-7.8,2.82,2.34,2.16,4.25,2.12,7.8h7.72c.54,0,3.79,2.01,3.26,3.2l-.27,52.93c-.76,1.02-1.76,1.36-2.98,1.5-9.71,1.13-21.51-.9-31.45.02-2.1-.13-2.78-2.92-3.2-4.74,1.15-15.12-1.48-32.37-.01-47.23.1-1.01.7-3.5,1.29-4.18.14-.17,2.81-1.51,2.97-1.51h7.72ZM107.1,11.43h10.21l.53-1.01c-.65-2.71-6.25-2.21-8.56-2.01-1.51.13-2.53,1.43-2.19,3.02ZM129.02,69.05V18.13l-.75-.75h-32.13v51.66h32.88Z"/><path class="cls-1" d="M83.19,17.39l.25,51.17c-.46.83-1.12.91-1.97,1.01-6.1.78-21.05.5-27.44,0-.96-.08-1.8-.29-2.72-.52V17.39h31.88ZM72.23,28.32c-1.2-1.27-4.89,6.33-5.17,6.76-1.91,2.89-3.84,5.49-5.62,8.53-.46.79-1.75.61-1.17,2.59h4.99c.59,1.87-2.74,10.97-1.99,11.92,2.27-.09,1.5-2.84,3.15-3.58.52-1.91,8.69-12.44,7.8-13.3-1.77-.08-3.87.58-4.87-1.24.31-.48.79-.9.88-1.51.34-2.51.57-5.47,1.02-7.93.18-.96,1.13-1.25.98-2.24Z"/><path class="cls-1" d="M72.23,11.43h-9.96c-.35-1.59.68-2.88,2.19-3.02,2.7-.24,8.59-.87,7.78,3.02Z"/><path class="cls-1" d="M38.36,17.39v51.66c-.91.23-1.76.45-2.72.52-7.03.55-19.98.62-26.95,0-1.11-.1-2.17-.12-2.97-1.01V18.39c.12-.23.92-1,1-1h31.63ZM26.4,28.32l-11.44,17.15c-.26,1.1.53.68,1.23.74,1.4.1,2.84-.08,4.24,0-.55,4.04-2.11,7.83-1.99,11.92l2.84-3.13c1.41-4.27,5.72-8.16,7.14-12.38.16-.48.57-.43.97-.39l-.24-.98c-1.25-.15-4.21.58-4.68-.81-.6-1.42.72-2.35.92-3.43.18-.95-.14-1.99.04-2.94.31-1.65,1.71-3.4.97-5.73Z"/><path class="cls-1" d="M17.68,11.43c-.99-.25-.53-2.25.35-2.65,1.8-.81,10.69-1.36,9.36,2.65h-9.71Z"/><path class="cls-1" d="M129.02,69.05h-32.88V17.39h32.13l.75.75v50.92ZM117.06,28.32c-.45-.58-1.74,1.15-1.93,1.41-1.91,2.71-3.28,5.87-5.21,8.13l-4.81,7.6c-.59,1.53,4.58.33,4.98.73.44,4.35-1.59,8.13-1.99,12.42l2.16-2.09c2.06-3.89,4.87-7.57,6.98-10.92.77-1.22,1.21-2.58,2.31-3.63.38-1.59-4.04-.29-4.48-.73-.32-4.47,1.38-8.54,1.99-12.92Z"/><path class="cls-1" d="M107.1,11.43c-.35-1.59.68-2.88,2.19-3.02,2.3-.2,7.91-.7,8.56,2.01l-.53,1.01h-10.21Z"/><path d="M72.23,28.32c.14.99-.81,1.28-.98,2.24-.45,2.46-.68,5.41-1.02,7.93-.08.61-.56,1.03-.88,1.51,1.01,1.82,3.1,1.16,4.87,1.24.89.87-7.28,11.39-7.8,13.3-1.65.74-.89,3.49-3.15,3.58-.75-.96,2.58-10.06,1.99-11.92h-4.99c-.58-1.97.71-1.8,1.17-2.59,1.77-3.04,3.71-5.64,5.62-8.53.29-.43,3.98-8.03,5.17-6.76Z"/><path d="M26.4,28.32c.73,2.33-.66,4.08-.97,5.73-.18.95.14,1.99-.04,2.94-.2,1.08-1.52,2.01-.92,3.43.47,1.39,3.42.66,4.68.81l.24.98c-.39-.03-.81-.08-.97.39-1.42,4.22-5.73,8.11-7.14,12.38l-2.84,3.13c-.12-4.09,1.44-7.87,1.99-11.92-1.4-.08-2.84.1-4.24,0-.7-.05-1.49.37-1.23-.74l11.44-17.15Z"/><path d="M117.06,28.32c-.61,4.37-2.31,8.45-1.99,12.92.44.44,4.85-.86,4.48.73-1.11,1.05-1.54,2.41-2.31,3.63-2.11,3.36-4.92,7.03-6.98,10.92l-2.16,2.09c.4-4.29,2.43-8.07,1.99-12.42-.4-.4-5.56.8-4.98-.73l4.81-7.6c1.93-2.26,3.31-5.42,5.21-8.13.18-.26,1.47-1.99,1.93-1.41Z"/></g></g></svg>