<?xml version="1.0" encoding="UTF-8"?><svg id="Layer_2" xmlns="http://www.w3.org/2000/svg" viewBox="0 0 112 92"><defs><style>.cls-1{fill:#fff;}</style></defs><g id="Layer_1-2"><g id="_58mryD.tif"><path class="cls-1" d="M112,0v92H0V0h112ZM109.51,6.46h-21.16l-4.58,4.1c.46,1.26-1.15,3.88-1.15,4.1v12.68h-17.92v-7.71c0-.19-1.41-2.94-1.65-3.34-1.01-1.72-4.8-3.43-6.69-3.75-3.2-.55-3.78.08-6.98-1.08-2.63-.95-16.93-.9-20.27-.54-1.86.2-2.75,1.24-4.01,1.46-5.23.95-12.14-1.36-17.15,1.02v7.96c0,.1,1.62,1.02,1.72,1.03,4.5.59,11.78-.93,15.86-.03.41.09.38.91.95,1.14,3,1.22,19.59-.38,20.31.34v3.48H8.71l-.75.75v49.98l2.99.99v7.96h85.37c2.76,0-1.02-9.86,4.23-8.95V23.87l5.91-.56c.56-5.64,2.55-11.04,3.05-16.84Z"/><path d="M109.51,6.46c-.5,5.8-2.49,11.21-3.05,16.84l-5.91.56v54.21c-5.25-.9-1.48,8.95-4.23,8.95H10.95v-7.96l-2.99-.99V28.1l.75-.75h38.08v-3.48c-.72-.72-17.31.88-20.31-.34-.57-.23-.53-1.05-.95-1.14-4.08-.9-11.36.62-15.86.03-.1-.01-1.72-.93-1.72-1.03v-7.96c5-2.39,11.92-.08,17.15-1.02,1.26-.23,2.15-1.26,4.01-1.46,3.34-.37,17.65-.41,20.27.54,3.21,1.16,3.78.53,6.98,1.08,1.89.32,5.67,2.03,6.69,3.75.24.4,1.65,3.15,1.65,3.34v7.71h17.92v-12.68c0-.22,1.6-2.84,1.15-4.1l4.58-4.1h21.16ZM97.56,8.45h-7.96s.15.65-.12.86c-.37.29-1.19.01-1.71.3-.32.18-2.15,2.88-2.15,3.07v14.67h11.95V8.45ZM100.55,8.45v12.93l3.77-.46,2.21-12.47h-5.98ZM46.79,13.43h-17.92v7.96h17.92v-7.96ZM25.88,15.42h-14.93v3.98h14.93v-3.98ZM58.74,15.42h-8.96v11.94h11.95v-8.95s-.6.09-.8-.17c-.78-.98-1.03-1.23-2.01-2.01-.25-.2-.14-.78-.17-.8ZM97.56,29.34H10.95v46.75h86.61V29.34ZM94.58,85.04l-.47-6.25-78.93-.22-2.26.83c.25,1.83-.66,4.29.77,5.64h80.89Z"/><path class="cls-1" d="M97.56,29.34v46.75H10.95V29.34h86.61ZM93.58,34.31c-1.22-.43-1.8-.88-3.2-1.03-5.62-.58-19.87-.62-25.43.02-1.26.14-2.05.79-3.22,1.01v14.67c0,.09,1.16,1.24,1.24,1.24h29.87l.75-.75v-15.17ZM56.75,37.3c-11.4-1.13-23.1-.19-34.6-.5l-6.09,2.61c-2.21,3.86-1.83,10.3,3.86,9.83v7.96c-4.47-.57-5.67,3.22-4.95,7.18.46,2.53,2.26,2.89,4.5,2.98l.46,1.77h36.84v-31.83ZM93.58,71.11v-15.17l-.75-.75h-31.11v16.16l.75.75h30.12s-.09-.55.18-.82.8-.14.82-.18Z"/><path class="cls-1" d="M94.58,85.04H13.69c-1.42-1.35-.51-3.81-.77-5.64l2.26-.83,78.93.22.47,6.25Z"/><path class="cls-1" d="M97.56,8.45v18.9h-11.95v-14.67c0-.19,1.83-2.89,2.15-3.07.52-.28,1.34,0,1.71-.3.27-.21.08-.86.12-.86h7.96Z"/><rect class="cls-1" x="28.87" y="13.43" width="17.92" height="7.96"/><path class="cls-1" d="M58.74,15.42s-.08.6.17.8c.98.78,1.23,1.03,2.01,2.01.21.26.8.13.8.17v8.95h-11.95v-11.94h8.96Z"/><polygon class="cls-1" points="100.55 8.45 106.53 8.45 104.32 20.92 100.55 21.38 100.55 8.45"/><rect class="cls-1" x="10.95" y="15.42" width="14.93" height="3.98"/><path d="M56.75,37.3v31.83H19.91l-.46-1.77c-2.24-.09-4.04-.44-4.5-2.98-.71-3.96.49-7.75,4.96-7.18v-7.96c-5.7.47-6.08-5.96-3.86-9.83l6.09-2.61c11.51.31,23.2-.63,34.6.5ZM54.76,39.29h-31.61l-.75.75v25.86c0,.16.66.76.5,1.24h31.11l.75-.75v-27.1ZM19.91,41.27c-2.98-.83-2.79,3.05-1.7,5l1.7-.03v-4.98ZM19.91,65.15c-.09-.95.43-5.99-.74-5.96-2.12,1.63-1.94,3.57-1.18,5.89l1.93.07Z"/><path d="M93.58,71.11s-.56-.08-.82.18-.14.82-.18.82h-30.12l-.75-.75v-16.16h31.11l.75.75v15.17ZM90.6,57.69h-25.64c-.16,0-.76.66-1.24.5v10.94h26.63l.75-.75v-9.45c0-.16-.66-.76-.5-1.24Z"/><path d="M93.58,34.31v15.17l-.75.75h-29.87c-.09,0-1.24-1.16-1.24-1.24v-14.67c1.17-.22,1.96-.86,3.22-1.01,5.56-.64,19.81-.6,25.43-.02,1.41.14,1.98.6,3.2,1.03ZM90.6,48.24c-.27-.63.5-1.47.5-1.74v-9.45l-.75-.75h-25.64v11.94h25.88Z"/><path class="cls-1" d="M54.76,39.29v27.1l-.75.75h-31.11c.16-.49-.5-1.08-.5-1.24v-25.86l.75-.75h31.61ZM49.29,57.19c1.3.18,2.22-.44,2.47-1.75.22-1.18.36-6.78-.78-7.15l-1.73.17c-.94.67-.51,7.25.04,8.74ZM36.09,55.2c-1.43-.4-6.95,0-8.96,0-.19,0-1.66,1.53-1.24,1.99,1.62.58,10.37.87,10.95,0,.28-.43-.14-1.81-.74-1.98ZM36.84,59.18h-10.45v1.99h10.45v-1.99ZM36.84,62.16h-10.45l-.49,1.24.74.75h10.2v-1.99Z"/><path class="cls-1" d="M19.91,65.15l-1.93-.07c-.76-2.33-.93-4.27,1.18-5.89,1.18-.03.65,5.01.74,5.96Z"/><path class="cls-1" d="M19.91,41.27v4.98l-1.7.03c-1.09-1.95-1.27-5.83,1.7-5Z"/><path class="cls-1" d="M90.6,57.69c-.16.49.5,1.08.5,1.24v9.45l-.75.75h-26.63v-10.94c.49.16,1.08-.5,1.24-.5h25.64ZM82.63,59.18h-10.2l-.74,1.24.74.75h10.2v-1.99Z"/><path class="cls-1" d="M90.6,48.24h-25.88v-11.94h25.64l.75.75v9.45c0,.27-.77,1.11-.5,1.74Z"/><path d="M49.29,57.19c-.55-1.49-.98-8.07-.04-8.74l1.73-.17c1.14.38,1,5.98.78,7.15-.25,1.31-1.17,1.93-2.47,1.75Z"/><path d="M36.09,55.2c.6.17,1.03,1.56.74,1.98-.58.87-9.33.58-10.95,0-.41-.45,1.05-1.99,1.24-1.99,2.01,0,7.53-.4,8.96,0Z"/><polygon points="36.84 62.16 36.84 64.15 26.63 64.15 25.89 63.41 26.38 62.16 36.84 62.16"/><rect x="26.38" y="59.18" width="10.45" height="1.99"/><polygon points="82.63 59.18 82.63 61.17 72.43 61.17 71.68 60.41 72.43 59.18 82.63 59.18"/></g></g></svg>